<?xml version="1.0" encoding="UTF-8" standalone="no"?>
<svg
   width="95"
   height="27"
   viewBox="0 0 95 27"
   fill="none"
   version="1.1"
   id="svg1"
   sodipodi:docname="scopd_logo.svg"
   inkscape:version="1.4.2 (ebf0e940, 2025-05-08)"
   xmlns:inkscape="http://www.inkscape.org/namespaces/inkscape"
   xmlns:sodipodi="http://sodipodi.sourceforge.net/DTD/sodipodi-0.dtd"
   xmlns="http://www.w3.org/2000/svg"
   xmlns:svg="http://www.w3.org/2000/svg">
  <defs
     id="defs1" />
  <sodipodi:namedview
     id="namedview1"
     pagecolor="#ffffff"
     bordercolor="#000000"
     borderopacity="0.25"
     inkscape:showpageshadow="2"
     inkscape:pageopacity="0.0"
     inkscape:pagecheckerboard="0"
     inkscape:deskcolor="#d1d1d1"
     inkscape:zoom="0.96296296"
     inkscape:cx="47.25"
     inkscape:cy="12.980769"
     inkscape:window-width="1304"
     inkscape:window-height="630"
     inkscape:window-x="167"
     inkscape:window-y="196"
     inkscape:window-maximized="0"
     inkscape:current-layer="svg1" />
  <path
     fill-rule="evenodd"
     clip-rule="evenodd"
     d="M91.1386 3.82802V7.65595L90.7119 7.29465C89.7558 6.4849 88.6721 6.03396 87.3682 5.90336C83.8029 5.54622 80.7652 7.63743 79.7644 11.1378C79.461 12.1993 79.3816 13.9885 79.5905 15.061C80.0853 17.6013 81.5037 19.4784 83.6808 20.474C84.6873 20.9342 85.2819 21.0565 86.5049 21.0548C87.5632 21.0534 87.5952 21.0478 88.9075 20.6281C91.3581 19.8443 91.7874 19.8377 93.5968 20.556C94.2505 20.8155 94.8338 21.0485 94.8927 21.0736C94.9782 21.11 95 18.9763 95 10.5597V0H93.0693H91.1386V3.82802ZM9.2311 5.48274C7.05764 5.7741 5.16271 7.31177 4.55535 9.27703C4.45264 9.60918 4.42261 9.6321 3.81568 9.84071C2.91786 10.1493 2.24245 10.5576 1.62076 11.1676C0.985175 11.7912 0.597833 12.3859 0.281969 13.2229L0.0520861 13.8323L0.0260857 17.0931L0 20.3538H3.09737C6.61846 20.3538 7.05601 20.3042 8.20396 19.7741C9.06832 19.375 9.77032 18.832 10.2783 18.1699C10.6902 17.6331 11.1028 16.8418 11.2006 16.401C11.2504 16.1767 11.3181 16.1266 11.7472 15.9963C14.1326 15.2717 15.7123 13.2181 15.7123 10.8415C15.7123 7.57088 12.6348 5.0264 9.2311 5.48274ZM24.5935 5.89954C22.2145 6.14346 20.481 7.33669 19.9571 9.09102C19.8453 9.46554 19.8194 9.78804 19.8491 10.436C19.8839 11.1919 19.9208 11.3526 20.1747 11.8542C20.5438 12.5836 21.2288 13.226 22.1327 13.6908C22.5145 13.8871 23.5899 14.2917 24.5226 14.59C26.4684 15.2121 26.9782 15.4275 27.3582 15.7871C28.0937 16.4832 27.8739 17.4815 26.8867 17.9294C26.4434 18.1306 26.3035 18.1517 25.4516 18.1463C23.9134 18.1365 22.7182 17.7055 21.7011 16.7938C21.4248 16.5461 21.1879 16.358 21.1745 16.3756C21.1612 16.3932 20.7501 16.8563 20.2611 17.4046C19.772 17.9529 19.3139 18.4678 19.2432 18.5488C19.1264 18.6826 19.1414 18.723 19.4085 18.993C20.1826 19.7753 21.4834 20.4625 22.8781 20.8258C23.6632 21.0303 23.8692 21.0491 25.3229 21.0489C27.1522 21.0485 27.7782 20.9298 28.9698 20.3573C30.2046 19.7642 30.979 18.9145 31.3434 17.7531C31.4922 17.2789 31.5157 17.0363 31.4808 16.3373C31.4104 14.9278 30.9206 14.0661 29.7641 13.3172C28.9927 12.8178 28.1983 12.5048 26.3283 11.9642C24.1395 11.3312 23.6176 11.0086 23.544 10.2431C23.4958 9.74193 23.741 9.35562 24.2965 9.05788C24.6099 8.88998 24.828 8.84686 25.4991 8.82044C26.8319 8.76794 27.8789 9.11437 28.8065 9.91473L29.2934 10.3349L30.3702 9.26715L31.447 8.19944L30.7962 7.59539C29.7208 6.59714 28.3403 6.06462 26.3955 5.8978C25.8764 5.85327 25.3937 5.82153 25.3229 5.82735C25.2521 5.83316 24.9239 5.86565 24.5935 5.89954ZM39.2669 5.90685C36.2602 6.21058 33.68 8.26748 32.7644 11.0908C32.1696 12.9244 32.252 14.7964 33.004 16.5389C33.7477 18.2621 35.4148 19.8439 37.2518 20.5694C39.8527 21.5967 43.4459 21.0686 45.4134 19.37C45.6433 19.1716 45.8313 18.9809 45.8313 18.9464C45.8313 18.8989 44.1276 16.459 43.9793 16.294C43.9641 16.2771 43.7858 16.401 43.5829 16.5694C42.3785 17.5689 40.4444 17.9273 38.9021 17.4369C36.0275 16.5229 35.1832 12.5701 37.4035 10.4206C38.2418 9.60893 39.376 9.23948 40.753 9.32937C41.8353 9.40007 42.7047 9.71618 43.4372 10.3053L43.832 10.6227L44.9125 9.32015L45.9931 8.01759L45.805 7.82136C45.1868 7.17668 43.777 6.44594 42.5814 6.15035C41.9875 6.00355 40.3618 5.79819 40.0392 5.82926C39.992 5.83375 39.6445 5.86872 39.2669 5.90685ZM52.7389 5.89996C50.3744 6.15002 48.2038 7.50492 46.9539 9.5109C46.7927 9.76976 46.5327 10.3116 46.3762 10.7151C44.9241 14.4576 46.5494 18.5684 50.1821 20.3417C51.0701 20.7752 52.1006 21.0251 53.2109 21.0763C54.9397 21.156 56.4338 20.7601 57.8392 19.85C59.4787 18.7882 60.6112 17.224 61.1132 15.3277C61.3872 14.2927 61.3901 12.7394 61.1202 11.6825C60.1674 7.95304 56.5999 5.49163 52.7389 5.89996ZM69.4288 5.90519C68.6024 5.99483 67.2516 6.41803 66.6193 6.78547C64.9341 7.7647 63.6572 9.12434 63.1164 10.5154C62.6669 11.6714 62.6506 11.996 62.6503 19.7931L62.6499 27H64.5806H66.5113V23.5564V20.1128L67.1334 20.3981C68.1692 20.8732 68.9666 21.039 70.244 21.0447C71.1154 21.0485 71.5248 21.01 72.1148 20.8684C74.416 20.3163 76.1912 18.9169 77.2425 16.8262C78.1438 15.0339 78.301 13.0514 77.6908 11.1738C76.5636 7.70622 73.1131 5.50584 69.4288 5.90519ZM55.2296 9.6714C56.701 10.3755 57.5014 11.7138 57.5014 13.4703C57.5014 15.6415 56.1698 17.3015 54.172 17.6209C52.9578 17.8151 51.8296 17.4411 50.8925 16.5338C48.5672 14.2826 49.5365 10.2644 52.6102 9.41237C52.846 9.34698 53.3065 9.31691 53.7926 9.33502C54.5046 9.36161 54.6565 9.39725 55.2296 9.6714ZM71.4592 9.45606C73.1603 9.97014 74.2342 11.5189 74.2342 13.4585C74.2342 15.1811 73.3776 16.6155 71.9436 17.2943C71.3807 17.5608 71.3223 17.5708 70.3298 17.5708C69.3319 17.5708 69.2816 17.562 68.6995 17.2866C66.374 16.1866 65.6263 13.0681 67.1682 10.9006C67.4905 10.4475 68.1116 9.90834 68.5833 9.67223C69.3285 9.29913 70.6189 9.2021 71.4592 9.45606ZM88.191 9.42051C89.9381 9.87087 91.1412 11.5184 91.1373 13.4551C91.133 15.5973 89.7812 17.2876 87.8035 17.6237C86.2595 17.8861 84.5496 17.0448 83.7811 15.6447C82.8238 13.9003 83.1664 11.5667 84.5628 10.3205C85.5508 9.43887 86.9326 9.09609 88.191 9.42051ZM7.08844 9.76428C9.10573 10.2712 10.7426 11.8861 11.2118 13.8323C11.3558 14.4296 11.3605 15.9546 11.2188 16.092C11.1811 16.1286 9.62822 16.1698 7.76788 16.1836L4.38545 16.2089V13.136C4.38545 11.3936 4.4208 9.97314 4.46706 9.85525C4.52961 9.69599 4.62486 9.6385 4.87465 9.60934C5.4089 9.54687 6.53755 9.62587 7.08844 9.76428Z"
     fill="#101010"
     id="path1"
     style="fill:#fefefe;fill-opacity:1" />
</svg>
